# Blender v2.90.1 OBJ File: ''
# www.blender.org
mtllib untitled.mtl
o Icosphere.001
v -0.204230 -1.715578 -0.628565
v 0.003141 1.282378 0.774665
v -0.507115 0.883830 -0.691926
v 0.382787 0.771242 -0.814425
v 0.892851 0.771243 0.112381
v -0.154679 2.596931 -0.112380
v 0.154679 -2.596931 0.112380
v -0.003141 -1.282379 0.774665
v 0.735780 -1.282372 0.242373
v -0.738170 -1.643638 -0.000000
v 0.457883 -1.282374 -0.624868
v 0.280057 0.131201 0.861923
v -0.772515 0.873349 0.452259
v -0.906279 -0.131201 -0.000000
v 0.294226 2.344573 0.213768
vt 0.272727 0.000000
vt 0.194689 0.137153
vt 0.340601 0.117562
vt 0.318592 0.288606
vt 0.681202 0.157461
vt 0.658666 0.274305
vt 0.818181 0.236191
vt 0.863020 0.157461
vt 0.985060 0.289045
vt 0.476848 0.274305
vt 0.499383 0.157461
vt 0.864252 0.314921
vt 0.727272 0.393651
vt 0.932540 0.431766
vt 0.106898 0.289045
vt 0.181818 0.393651
vt 0.351338 0.412450
vt 0.590909 0.393651
vt 0.522419 0.432483
vt 0.863635 0.393651
vt 0.181818 0.236191
vt 0.136065 0.116845
vt 0.000000 0.157461
vt 0.477994 0.040616
vt 0.386671 0.117562
vt 0.067874 0.039899
vt 0.636363 0.078731
vt 0.805883 0.059932
vn -0.6222 -0.6365 -0.4557
vn -0.7638 -0.1045 -0.6369
vn 0.7825 -0.0205 0.6223
vn -0.3545 0.0133 0.9350
vn -0.1413 -0.0406 -0.9891
vn 0.8760 -0.0125 -0.4821
vn 0.6571 0.2032 0.7259
vn -0.5303 0.4295 0.7309
vn -0.9395 0.2662 -0.2155
vn -0.0867 0.3352 -0.9381
vn 0.8231 0.3424 -0.4530
vn 0.6763 0.4293 -0.5986
vn -0.3005 0.5085 0.8070
vn -0.9497 0.2247 -0.2182
vn -0.3748 -0.0199 0.9269
vn 0.6592 0.2132 0.7211
vn 0.0640 -0.0894 -0.9939
vn -0.8007 -0.0890 -0.5925
vn -0.8748 -0.0972 0.4747
vn -0.6856 -0.1378 0.7148
vn 0.5765 -0.1649 0.8003
vn 0.9483 -0.0918 -0.3039
vn 0.3436 -0.5184 -0.7831
vn -0.5475 -0.4280 0.7191
vn 0.8870 -0.3640 -0.2842
vn 0.5536 -0.3207 0.7685
usemtl Material.002
s off
f 7/1/1 10/2/1 1/3/1
f 1/3/2 10/2/2 3/4/2
f 9/5/3 5/6/3 12/7/3
f 8/8/4 12/7/4 13/9/4
f 1/3/5 3/4/5 4/10/5
f 11/11/6 4/10/6 5/6/6
f 2/12/7 5/6/7 15/13/7
f 13/9/8 2/12/8 6/14/8
f 3/4/9 13/15/9 6/16/9
f 4/10/10 3/4/10 6/17/10
f 5/6/11 4/10/11 15/18/11
f 15/18/12 4/10/12 6/19/12
f 6/14/13 2/12/13 15/20/13
f 14/21/14 13/15/14 3/4/14
f 13/9/15 12/7/15 2/12/15
f 12/7/16 5/6/16 2/12/16
f 11/11/17 1/3/17 4/10/17
f 3/4/18 10/2/18 14/21/18
f 14/21/19 10/22/19 13/15/19
f 10/22/20 8/23/20 13/15/20
f 8/8/21 9/5/21 12/7/21
f 9/5/22 11/11/22 5/6/22
f 7/24/23 1/25/23 11/11/23
f 7/26/24 8/23/24 10/22/24
f 9/5/25 7/27/25 11/11/25
f 7/28/26 9/5/26 8/8/26
